<svg version="1.1" xmlns="http://www.w3.org/2000/svg" xmlns:xlink="http://www.w3.org/1999/xlink" x="0px" y="0px" viewBox="0 0 1000 1000" enable-background="new 0 0 1000 1000" xml:space="preserve">
<metadata> Svg Vector Icons : http://www.onlinewebfonts.com/icon </metadata>
<g><path d="M886.6,537.2c-25.7,99.2-65.2,185.6-117.5,256.7C703,883.8,616.5,949,512,987.8c-3.9,1.4-7.9,2.2-12,2.2c-4.1,0-8.1-0.7-12-2.2c-104.5-38.8-191-104.1-257.1-194c-52.3-71.1-91.9-157.4-117.5-256.7C70.1,370,81.1,224.8,81.6,218.7c1.3-16.6,13.9-29.9,30.2-32.1c123.8-16.4,215.7-60.4,271-94.4c60.2-37,91.4-70.6,91.7-70.9C481.1,14.1,490.3,10,500,10c9.7,0,19,4.2,25.6,11.4c0.2,0.3,31.5,33.8,91.7,70.8c55.3,34,147.2,77.9,271,94.4c16.3,2.2,28.8,15.5,30.2,32.1C918.9,224.8,929.9,370,886.6,537.2z M850.1,252.1C665.5,220.9,548.5,135.9,500,93.5c-48.5,42.3-165.5,127.3-350.1,158.6c-0.9,48.4,1.4,154.4,31.3,269.1c51.9,199,159.1,332.1,318.8,395.8c160.2-64,267.6-197.7,319.3-397.7C848.9,405,851.1,300.2,850.1,252.1z M531.7,616.8c-55.1,51.9-98.1,0.1-96.8,0.2L331.7,513.9c-13.7-13.7-13.7-35.8,0-49.4c13.7-13.7,35.8-13.7,49.5,0l103.2,103.2l173.2-173.2c13.7-13.7,35.8-13.7,49.4,0c13.7,13.7,13.7,35.8,0,49.5C706.9,443.9,533.8,617,531.7,616.8z"/></g>
</svg>